<svg width="100" height="100" viewBox="0 0 100 100" fill="none" xmlns="http://www.w3.org/2000/svg">
<path d="M49.9999 99.9999C77.6141 99.9999 99.9998 77.6142 99.9998 50C99.9998 22.3858 77.6141 6.10352e-05 49.9999 6.10352e-05C22.3857 6.10352e-05 0 22.3858 0 50C0 77.6142 22.3857 99.9999 49.9999 99.9999Z" fill="white" fill-opacity="0.3"/>
<path d="M99.7996 45.4C99.3996 41.8 94.7996 41.8 91.7997 43.8C83.7997 49.2 74.1997 52.4 63.7997 52.4C53.5997 52.4 44.0997 49.3 36.1997 44.1C27.0998 38.1 15.9998 33.3 6.29979 38C5.8998 38.2 5.3998 38.4 4.9998 38.7C2.3998 40 0.599804 42.5 0.299805 45.4C2.4998 19.9 23.8998 6.10352e-05 49.9997 6.10352e-05C76.0997 6.10352e-05 97.4996 20 99.7996 45.4Z" fill="white"/>
</svg>
